<?xml version="1.0" standalone="no"?>
<!DOCTYPE svg PUBLIC "-//W3C//DTD SVG 20010904//EN"
 "http://www.w3.org/TR/2001/REC-SVG-20010904/DTD/svg10.dtd">
<svg version="1.0" xmlns="http://www.w3.org/2000/svg"
 width="79.000000pt" height="80.000000pt" viewBox="0 0 79.000000 80.000000"
 preserveAspectRatio="xMidYMid meet">

<g transform="translate(0.000000,80.000000) scale(0.100000,-0.100000)"
fill="#000000" stroke="none">
<path d="M20 375 l0 -285 375 0 375 0 0 285 0 285 -375 0 -375 0 0 -285z m600
175 l0 -50 -220 0 -220 0 0 50 0 50 220 0 220 0 0 -50z m110 -250 l0 -170
-260 0 -260 0 0 163 c0 90 3 167 7 170 3 4 120 7 260 7 l253 0 0 -170z"/>
<path d="M207 563 c-4 -3 -7 -12 -7 -20 0 -10 23 -13 100 -13 93 0 100 1 100
20 0 19 -7 20 -93 20 -52 0 -97 -3 -100 -7z"/>
<path d="M580 300 c0 -63 2 -70 20 -70 18 0 20 7 20 70 0 63 -2 70 -20 70 -18
0 -20 -7 -20 -70z"/>
</g>
</svg>
